<?xml version="1.0" encoding="utf-8"?>
<!-- Generator: Adobe Illustrator 22.0.1, SVG Export Plug-In . SVG Version: 6.00 Build 0)  -->
<svg version="1.1" id="Layer_1" xmlns="http://www.w3.org/2000/svg" xmlns:xlink="http://www.w3.org/1999/xlink" x="0px" y="0px"
	 viewBox="0 0 97.1 97" style="enable-background:new 0 0 97.1 97;" xml:space="preserve">
<style type="text/css">
	.st0{fill:#12789B;}
	.st1{fill:#FFFFFF;}
	.st2{fill:#0B647D;}
	.st3{fill:#67B7BC;}
	.st4{fill:#EC7D26;}
	.st5{fill:#AEADAE;}
</style>
<g>
	<g>
		<circle class="st0" cx="48.5" cy="48.5" r="48.3"/>
	</g>
	<g>
		<path class="st1" d="M49,24c-0.8,0-1.4,0.6-1.4,1.4s0.6,1.4,1.4,1.4c11.3,0,20.5,9.2,20.5,20.5c0,0.8,0.6,1.4,1.4,1.4
			s1.4-0.6,1.4-1.4C72.3,34.4,61.9,24,49,24z"/>
		<path class="st1" d="M60.7,47.3c0,0.8,0.6,1.4,1.4,1.4s1.4-0.6,1.4-1.4c0-7.4-6-13.4-13.4-13.4c-0.8,0-1.4,0.6-1.4,1.4
			s0.6,1.4,1.4,1.4C56,36.7,60.7,41.4,60.7,47.3z"/>
		<path class="st1" d="M57.1,53.6c-0.6-0.5-1.4-0.4-2,0.1l-4.1,4.6c-0.3,0.4-0.9,0.4-1.3,0.2L39.3,48c-0.3-0.4-0.2-1,0.1-1.3
			l4.6-4.1c0.6-0.5,0.6-1.4,0.1-2l-8.5-10c-0.5-0.6-1.3-0.7-1.9-0.2l-5.3,3.9c-2.3,1.7-3.7,4.3-3.7,7.1c0,3,0.9,7.8,5.5,13.4
			c0.1,0.1,0.2,0.2,0.3,0.3l12.3,12.3c0,0,0.1,0.1,0.1,0.1C48.4,72,53.1,73,56.1,73c0.1,0,0.1,0,0.2,0c2.8,0,5.5-1.4,7.1-3.7
			l3.9-5.3c0.4-0.6,0.3-1.4-0.2-1.9L57.1,53.6z M61.2,67.7c-1.2,1.6-3,2.5-4.9,2.6c-0.1,0-0.1,0-0.2,0c-2.6,0-6.6-0.9-11.3-4.8
			L32.1,52.6c-3.8-4.7-4.6-8.6-4.6-11.1c0-1.9,1-3.8,2.6-4.9l4.3-3.1l6.8,8l-3.6,3.2c-1.5,1.3-1.7,3.6-0.5,5.1c0,0,0,0,0.1,0.1
			c0,0,0,0.1,0.1,0.1l10.7,10.7c0,0,0.1,0.1,0.1,0.1c1.6,1.2,3.8,1,5.1-0.5l3.2-3.6l8,6.8L61.2,67.7z"/>
	</g>
</g>
</svg>
