<?xml version="1.0" encoding="utf-8"?>
<!-- Generator: Adobe Illustrator 22.0.1, SVG Export Plug-In . SVG Version: 6.00 Build 0)  -->
<svg version="1.1" id="Layer_1" xmlns="http://www.w3.org/2000/svg" xmlns:xlink="http://www.w3.org/1999/xlink" x="0px" y="0px"
	 viewBox="0 0 97.1 118" style="enable-background:new 0 0 97.1 118;" xml:space="preserve">
<style type="text/css">
	.st0{fill:#12789B;}
	.st1{fill:#FFFFFF;}
	.st2{fill:#0B647D;}
	.st3{fill:#67B7BC;}
	.st4{fill:#EC7D26;}
	.st5{fill:#AEADAE;}
</style>
<g>
	<path class="st2" d="M97.1,48.5c0,26.8-48.5,69.5-48.5,69.5S0.1,75.3,0.1,48.5S21.8,0,48.6,0S97.1,21.7,97.1,48.5z"/>
	<g>
		<polygon class="st1" points="23,29.8 23,32.5 35.1,29.3 35.1,26.6 		"/>
		<polygon class="st1" points="61.4,22.5 61.4,19.8 46.7,23.6 45.3,26.6 46.8,26.3 		"/>
		<polygon class="st1" points="23,35.5 23,38.1 35.1,35 35.1,32.3 		"/>
		<polygon class="st1" points="61.4,28.1 61.4,25.5 44.5,29.3 43.3,32.3 		"/>
		<polygon class="st1" points="61.4,34.7 61.4,32 41.8,36.3 40.7,39.1 		"/>
		<polygon class="st1" points="22.9,40.5 22.9,43.2 35.1,40.5 35.1,37.8 		"/>
		<polygon class="st1" points="61.4,40.4 61.4,37.8 39.4,41.9 38.5,44.8 		"/>
		<polygon class="st1" points="22.9,45.1 22.9,47.8 35.1,45.4 35.1,42.8 		"/>
		<polygon class="st1" points="61.4,46.7 61.4,44.1 37.2,48.5 36.3,50.9 		"/>
		<polygon class="st1" points="23,49.9 23,52.6 35.1,50.7 35.1,48 		"/>
		<polygon class="st1" points="43.2,52.5 35.1,53.5 35.1,53.5 34.4,53.5 34.4,53.5 34.4,53.5 23,54.9 23,57.6 33.4,56.4 42,55.3 		
			"/>
		<polyline class="st1" points="47,54.7 61.4,53 61.4,50.3 47.1,52 		"/>
		<polyline class="st1" points="46.8,60.4 61.4,59 61.4,56.4 46.8,57.7 		"/>
		<polygon class="st1" points="40.9,58.1 34.7,58.9 34.7,58.9 22.9,60 22.9,62.7 35.1,61.6 35.1,61.6 39.7,61.1 		"/>
		<polygon class="st1" points="22.9,65 22.9,67.7 37.2,66.9 38.4,64.1 		"/>
		<polygon class="st1" points="61.4,65.4 61.4,62.7 46.7,63.6 46.7,66.3 		"/>
		<polygon class="st1" points="61.4,71.3 61.4,68.7 46.7,69.2 46.7,71.8 		"/>
		<polygon class="st1" points="22.9,69.9 22.9,72.6 35.1,72.2 36.1,69.5 		"/>
		<g>
			<polygon class="st5" points="35,26.6 35,29.3 43.6,31.7 44.5,29.3 			"/>
			<polygon class="st5" points="35,32.3 35,35 41.6,36.8 42.5,34.4 			"/>
			<polygon class="st5" points="35,37.8 35,40.5 39.7,41.6 40.7,39.1 			"/>
			<polygon class="st5" points="35,42.8 35,45.4 38,46 39,43.6 			"/>
			<polygon class="st5" points="35,48 35,50.7 36.3,51.1 37.2,48.6 			"/>
		</g>
		<g>
			<polygon class="st5" points="46.7,69.5 46.7,67.1 36.1,69.5 35.1,72.2 			"/>
			<polygon class="st5" points="46.7,64.6 46.7,62 38.4,64 37.2,66.8 			"/>
			<polygon class="st5" points="46.8,59.3 46.9,56.6 40.9,58.1 39.7,61.1 			"/>
			<polygon class="st5" points="47,54.4 47.1,51.8 43.2,52.5 42,55.3 			"/>
			<polygon class="st5" points="46.9,49.2 46.9,46.7 44.7,47.1 43.6,49.7 			"/>
		</g>
		<g>
			<polygon class="st5" points="61.4,19.8 61.4,22.5 74.2,26.8 74.2,24.2 			"/>
			<polygon class="st5" points="61.4,25.5 61.4,28.1 74.2,31.8 74.2,29.4 			"/>
			<polygon class="st5" points="61.4,32 61.4,34.7 74.2,37.6 74.2,35 			"/>
			<polygon class="st5" points="61.4,37.8 61.4,40.4 74.2,43.3 74.2,40.8 			"/>
			<polygon class="st5" points="61.4,44.1 61.4,46.7 74.2,48.7 74.2,46.1 			"/>
		</g>
		<g>
			<polygon class="st5" points="61.4,50.3 61.4,53 74.2,53.7 74.2,51.1 			"/>
			<polygon class="st5" points="61.4,56.4 61.4,59 74.2,58.7 74.2,56.3 			"/>
			<polygon class="st5" points="61.4,62.7 61.4,65.4 74.2,64.2 74.2,61.6 			"/>
			<polygon class="st5" points="61.4,68.7 61.4,71.3 74.2,69 74.2,66.5 			"/>
		</g>
	</g>
</g>
</svg>
