<?xml version="1.0" encoding="utf-8"?>
<!-- Generator: Adobe Illustrator 22.0.1, SVG Export Plug-In . SVG Version: 6.00 Build 0)  -->
<svg version="1.1" id="Layer_1" xmlns="http://www.w3.org/2000/svg" xmlns:xlink="http://www.w3.org/1999/xlink" x="0px" y="0px"
	 viewBox="0 0 238.8 50" style="enable-background:new 0 0 238.8 50;" xml:space="preserve">
<style type="text/css">
	.st0{fill:#12789B;}
	.st1{fill:#FFFFFF;}
	.st2{fill:#0B647D;}
	.st3{fill:#67B7BC;}
	.st4{fill:#EC7D26;}
	.st5{fill:#AEADAE;}
</style>
<g>
	<g>
		<path class="st2" d="M53.2,24.7v-18h3.6c0.3,0,0.6,0.1,0.9,0.4c0.2,0.2,0.4,0.5,0.4,0.9v13.4L65.7,8c0.2-0.3,0.5-0.6,0.8-0.9
			c0.4-0.3,0.7-0.4,1-0.4h4c0.3,0,0.6,0.1,0.9,0.4c0.2,0.3,0.4,0.6,0.4,0.9v18h-3.6c-0.3,0-0.6-0.1-0.9-0.4s-0.4-0.5-0.4-0.9V12.2
			l-7,12.5c-0.2,0.3-0.5,0.6-0.9,0.9S59.2,26,58.9,26h-4.4c-0.3,0-0.6-0.1-0.9-0.4C53.3,25.3,53.2,25.1,53.2,24.7z"/>
		<path class="st2" d="M78.4,11.9c0.9-3.5,3.9-5.2,8.9-5.2H94c0.3,0,0.6,0.1,0.8,0.4C95,7.4,95.1,7.7,95.1,8v18h-3.8
			c-0.3,0-0.6-0.1-0.9-0.4c-0.2-0.2-0.4-0.5-0.4-0.9V10.5h-3.3c-0.9,0-1.6,0.2-2.2,0.7c-0.6,0.5-1.1,1.1-1.3,2l-3.1,11.5
			c-0.1,0.4-0.6,0.9-0.6,0.9S79,26,78.6,26h-4L78.4,11.9z"/>
		<path class="st2" d="M100.8,11.9c0.9-3.5,3.9-5.2,8.9-5.2h6.7c0.3,0,0.6,0.1,0.8,0.4c0.2,0.3,0.3,0.6,0.3,0.9v18h-3.8
			c-0.3,0-0.6-0.1-0.9-0.4c-0.2-0.2-0.4-0.5-0.4-0.9V10.5h-3.3c-0.9,0-1.6,0.2-2.2,0.7c-0.6,0.5-1.1,1.1-1.3,2l-3.1,11.5
			c-0.1,0.4-0.3,0.7-0.6,0.9c-0.3,0.2-0.6,0.4-1,0.4h-3.9L100.8,11.9z"/>
		<path class="st2" d="M121.4,24.7v-18h3.6c0.3,0,0.6,0.1,0.9,0.4c0.2,0.2,0.4,0.5,0.4,0.9v13.4L133.9,8c0.2-0.3,0.5-0.6,0.8-0.9
			c0.4-0.3,0.7-0.4,1-0.4h4c0.3,0,0.6,0.1,0.9,0.4c0.2,0.3,0.4,0.6,0.4,0.9v18h-3.6c-0.3,0-0.6-0.1-0.9-0.4
			c-0.2-0.2-0.4-0.5-0.4-0.9V12.2l-7,12.5c-0.2,0.3-0.5,0.6-0.9,0.9c-0.4,0.2-0.7,0.4-1.1,0.4h-4.4c-0.3,0-0.6-0.1-0.9-0.4
			C121.5,25.3,121.4,25.1,121.4,24.7z"/>
		<path class="st2" d="M142.9,24.7v-1.3c0-0.3,0.1-0.6,0.4-0.9c0.2-0.2,0.5-0.4,0.9-0.4h1l2.5-10.2c0.9-3.5,3.8-5.3,8.7-5.3h7.3
			c0.3,0,0.6,0.1,0.9,0.4c0.2,0.2,0.4,0.5,0.4,0.9v18h-20.8c-0.3,0-1.3,0-1.3,0S142.9,25.1,142.9,24.7z M150.4,22.2h9.5V10.5h-4
			c-0.8,0-1.5,0.2-2.1,0.7c-0.6,0.5-0.9,1.1-1.1,2L150.4,22.2z"/>
		<path class="st2" d="M168.8,24.7v-18h3.6c0.3,0,0.6,0.1,0.9,0.4c0.2,0.2,0.4,0.5,0.4,0.9v13.4L181.3,8c0.2-0.3,0.5-0.6,0.8-0.9
			c0.4-0.3,0.7-0.4,1-0.4h4c0.3,0,0.6,0.1,0.9,0.4c0.2,0.3,0.4,0.6,0.4,0.9v18h-3.6c-0.3,0-0.6-0.1-0.9-0.4
			c-0.2-0.2-0.4-0.5-0.4-0.9V12.2l-7,12.5c-0.2,0.3-0.5,0.6-0.9,0.9s-0.7,0.4-1.1,0.4H170c-0.3,0-0.6-0.1-0.9-0.4
			C168.9,25.3,168.8,25.1,168.8,24.7z"/>
		<path class="st2" d="M190.6,8c-0.1-0.3-0.1-0.6,0-0.9c0.1-0.3,0.4-0.4,0.7-0.4h2.8c0.9,0,1.5,0.4,1.8,1.2l1.5,3.7
			c0.5,1.1,1,1.9,1.7,2.4c0.7,0.5,1.6,0.8,2.7,0.8h1.7l2.4-6.9c0.1-0.4,0.3-0.7,0.7-0.9c0.3-0.2,0.7-0.3,1-0.3h2.7
			c0.3,0,0.6,0.1,0.8,0.4c0.2,0.2,0.2,0.5,0.1,0.9l-4.4,12.5c-0.6,1.8-1.5,3.1-2.8,4.1S201.3,26,199,26h-4.5l0-2.8
			c0-0.3,0.1-0.6,0.4-0.9c0.2-0.2,0.5-0.4,0.9-0.4h0.4c0.2,0,0.6,0,1.1,0.1c0.5,0.1,0.9,0.1,1.1,0.1h0.3c1.8,0,3-1.2,3.7-3.5h-1.2
			c-2.3,0-4-0.5-5.3-1.4c-1.3-0.9-2.3-2.4-3.2-4.5L190.6,8z"/>
		<path class="st2" d="M213.6,6.7h6.7c0.3,0,0.7,0.1,1,0.4c0.3,0.3,0.5,0.6,0.6,0.9l4,11.5l4-11.5c0.1-0.3,0.3-0.6,0.6-0.9
			c0.3-0.3,0.6-0.4,1-0.4h6.7V26h-3.7c-0.3,0-0.6-0.1-0.9-0.4c-0.2-0.2-0.4-0.6-0.4-0.9V11.6l-4.7,13.2c-0.1,0.3-0.3,0.6-0.7,0.9
			c-0.3,0.2-0.6,0.4-1,0.4h-1.9c-0.3,0-0.7-0.1-1-0.4c-0.3-0.2-0.5-0.5-0.7-0.9l-4.7-13.2v13.1c0,0.4-0.1,0.7-0.4,0.9
			c-0.2,0.2-0.5,0.4-0.9,0.4h-3.7V6.7z"/>
	</g>
	<g>
		<polygon class="st3" points="1.5,10.1 1.5,12.4 11.5,9.8 11.5,7.6 		"/>
		<polygon class="st3" points="33.1,4.1 33.1,1.9 21,5.1 19.8,7.6 21.1,7.2 		"/>
		<polygon class="st3" points="1.5,14.8 1.5,17 11.5,14.4 11.5,12.2 		"/>
		<polygon class="st3" points="33.1,8.8 33.1,6.6 19.2,9.7 18.2,12.2 		"/>
		<polygon class="st3" points="33.1,14.2 33.1,12 16.9,15.5 16.1,17.8 		"/>
		<polygon class="st3" points="1.4,18.9 1.4,21.2 11.5,18.9 11.5,16.7 		"/>
		<polygon class="st3" points="33.1,18.9 33.1,16.7 15,20.1 14.2,22.5 		"/>
		<polygon class="st3" points="1.4,22.7 1.4,24.9 11.5,23 11.5,20.8 		"/>
		<polygon class="st3" points="33.1,24.1 33.1,21.9 13.2,25.5 12.4,27.5 		"/>
		<polygon class="st3" points="1.5,26.7 1.5,28.9 11.5,27.4 11.5,25.2 		"/>
		<polygon class="st3" points="18.1,28.8 11.5,29.6 11.5,29.6 10.9,29.7 10.8,29.7 10.8,29.7 1.5,30.8 1.5,33 10,32 17.1,31.2 		"/>
		<polyline class="st3" points="21.2,30.7 33.1,29.2 33.1,27 21.3,28.4 		"/>
		<polyline class="st3" points="21,35.4 33.1,34.2 33.1,32 21.1,33.1 		"/>
		<polygon class="st3" points="16.2,33.5 11.1,34.1 11.1,34.1 1.4,35 1.4,37.2 11.5,36.3 11.5,36.3 15.2,35.9 		"/>
		<polygon class="st3" points="1.5,39.2 1.5,41.4 13.2,40.7 14.1,38.4 		"/>
		<polygon class="st3" points="33.1,39.4 33.1,37.2 21,38 21,40.2 		"/>
		<polygon class="st3" points="33.1,44.3 33.1,42.1 21,42.5 21,44.8 		"/>
		<polygon class="st3" points="1.5,43.2 1.5,45.4 11.5,45.1 12.3,42.9 		"/>
		<g>
			<polygon class="st2" points="11.4,7.6 11.4,9.8 18.4,11.7 19.2,9.7 			"/>
			<polygon class="st2" points="11.4,12.2 11.4,14.4 16.8,15.9 17.6,13.9 			"/>
			<polygon class="st2" points="11.4,16.7 11.4,18.9 15.3,19.9 16.1,17.8 			"/>
			<polygon class="st2" points="11.4,20.8 11.4,23 13.8,23.5 14.6,21.5 			"/>
			<polygon class="st2" points="11.4,25.2 11.4,27.4 12.4,27.6 13.2,25.6 			"/>
		</g>
		<g>
			<polygon class="st2" points="21,42.8 21,40.8 12.3,42.9 11.5,45.1 			"/>
			<polygon class="st2" points="21,38.8 21,36.6 14.2,38.3 13.2,40.6 			"/>
			<polygon class="st2" points="21.1,34.5 21.2,32.2 16.2,33.5 15.2,35.9 			"/>
			<polygon class="st2" points="21.2,30.4 21.3,28.2 18.1,28.8 17.1,31.2 			"/>
			<polygon class="st2" points="21.1,26.1 21.1,24.1 19.4,24.4 18.5,26.5 			"/>
		</g>
		<g>
			<polygon class="st2" points="33.1,1.9 33.1,4.1 43.7,7.7 43.7,5.6 			"/>
			<polygon class="st2" points="33.1,6.6 33.1,8.8 43.7,11.8 43.7,9.8 			"/>
			<polygon class="st2" points="33.1,12 33.1,14.2 43.7,16.5 43.7,14.4 			"/>
			<polygon class="st2" points="33.1,16.7 33.1,18.9 43.7,21.3 43.7,19.2 			"/>
			<polygon class="st2" points="33.1,21.9 33.1,24.1 43.7,25.7 43.7,23.6 			"/>
		</g>
		<g>
			<polygon class="st2" points="33.1,27 33.1,29.2 43.7,29.8 43.7,27.7 			"/>
			<polygon class="st2" points="33.1,32 33.1,34.2 43.7,34 43.7,32 			"/>
			<polygon class="st2" points="33.1,37.2 33.1,39.4 43.6,38.4 43.6,36.3 			"/>
			<polygon class="st2" points="33.1,42.1 33.1,44.3 43.7,42.4 43.7,40.3 			"/>
		</g>
	</g>
	<g>
		<path class="st2" d="M54.9,40.3c-0.4-0.2-0.8-0.5-1.2-1l0.9-0.7c0.2,0.3,0.4,0.6,0.7,0.8c0.3,0.2,0.6,0.3,1,0.3
			c0.6,0,1.1-0.1,1.3-0.3c0.3-0.2,0.4-0.5,0.4-0.8c0-0.4-0.1-0.6-0.4-0.8c-0.3-0.1-0.6-0.2-1.2-0.2h-0.8v-1h1
			c0.4-0.1,0.6-0.2,0.8-0.3c0.2-0.2,0.3-0.4,0.3-0.7c0-0.3-0.1-0.5-0.3-0.7c-0.2-0.2-0.6-0.2-1-0.2c-0.4,0-0.7,0.1-1,0.3
			c-0.3,0.2-0.6,0.4-0.7,0.7l-0.9-0.5c0.3-0.5,0.7-0.9,1.1-1.1c0.5-0.2,1-0.4,1.5-0.4c0.8,0,1.4,0.2,1.8,0.5
			c0.4,0.3,0.6,0.8,0.6,1.4c0,0.4-0.1,0.7-0.3,1s-0.5,0.4-0.9,0.5c0.3,0,0.6,0.1,0.8,0.3c0.2,0.1,0.4,0.3,0.5,0.5
			c0.1,0.2,0.2,0.5,0.2,0.7c0,0.7-0.2,1.2-0.7,1.5c-0.5,0.3-1.2,0.5-2.1,0.5C55.8,40.6,55.3,40.5,54.9,40.3z"/>
		<path class="st2" d="M61.5,40.4c-0.3-0.2-0.6-0.4-0.8-0.7c-0.2-0.3-0.3-0.7-0.3-1c0-0.7,0.2-1.2,0.7-1.5c0.4-0.3,1-0.5,1.8-0.5h2
			c0-0.7-0.1-1.2-0.4-1.5c-0.3-0.3-0.7-0.5-1.3-0.5c-0.4,0-0.7,0.1-1,0.3c-0.3,0.2-0.6,0.4-0.7,0.7L60.7,35c0.3-0.4,0.7-0.8,1.1-1
			c0.4-0.2,0.9-0.3,1.5-0.3c0.6,0,1,0.1,1.4,0.3c0.4,0.2,0.7,0.5,0.9,0.9c0.2,0.4,0.3,0.9,0.3,1.4v4.1h-0.9L65,39.3
			c-0.3,0.4-0.6,0.8-1,1c-0.4,0.2-0.8,0.3-1.4,0.3C62.2,40.6,61.9,40.5,61.5,40.4z M63.9,39.3c0.3-0.2,0.6-0.5,0.7-0.8
			c0.2-0.3,0.3-0.7,0.3-1H63c-0.4,0-0.8,0.1-1,0.3c-0.3,0.2-0.4,0.5-0.4,0.8s0.1,0.6,0.4,0.8c0.2,0.2,0.6,0.3,0.9,0.3
			C63.3,39.6,63.6,39.5,63.9,39.3z"/>
		<path class="st2" d="M69,40.1c-0.4-0.3-0.8-0.7-1-1.3c-0.2-0.5-0.3-1.1-0.3-1.7c0-0.6,0.1-1.2,0.3-1.7c0.2-0.5,0.6-1,1-1.3
			c0.4-0.3,1-0.5,1.6-0.5c0.6,0,1.1,0.2,1.6,0.5c0.5,0.3,0.8,0.8,1.1,1.3l-1,0.4c-0.1-0.4-0.3-0.7-0.6-0.9c-0.3-0.2-0.6-0.3-1-0.3
			c-0.4,0-0.8,0.1-1.1,0.4c-0.3,0.2-0.5,0.6-0.6,0.9c-0.1,0.4-0.2,0.8-0.2,1.2c0,0.4,0.1,0.8,0.2,1.2c0.1,0.4,0.3,0.7,0.6,0.9
			c0.3,0.2,0.6,0.4,1.1,0.4c0.4,0,0.7-0.1,1-0.3c0.3-0.2,0.5-0.5,0.6-0.9l1,0.4c-0.2,0.6-0.5,1-1,1.3c-0.4,0.3-1,0.5-1.6,0.5
			C70,40.6,69.5,40.5,69,40.1z"/>
		<path class="st2" d="M76.2,34.6H74v-0.9h5.5v0.9h-2.2v5.8h-1.1V34.6z"/>
		<path class="st2" d="M80.8,33.8h1.1v0.9c0.2-0.3,0.5-0.6,0.9-0.8c0.3-0.2,0.7-0.3,1.2-0.3c0.6,0,1.1,0.2,1.5,0.5
			c0.4,0.3,0.7,0.7,0.9,1.3c0.2,0.5,0.3,1.1,0.3,1.8c0,0.7-0.1,1.2-0.3,1.8c-0.2,0.5-0.5,0.9-0.9,1.3c-0.4,0.3-0.9,0.5-1.5,0.5
			c-0.9,0-1.6-0.3-2.1-1v3.8h-1.1V33.8z M84.7,39.3c0.3-0.2,0.5-0.5,0.6-0.9s0.2-0.8,0.2-1.3c0-0.5-0.1-0.9-0.2-1.3
			c-0.1-0.4-0.3-0.7-0.6-0.9c-0.3-0.2-0.6-0.3-1.1-0.3s-0.8,0.1-1.1,0.3c-0.3,0.2-0.5,0.5-0.6,0.9c-0.1,0.4-0.2,0.8-0.2,1.3
			c0,0.5,0.1,0.9,0.2,1.3s0.3,0.7,0.6,0.9c0.3,0.2,0.6,0.3,1.1,0.3S84.5,39.5,84.7,39.3z"/>
		<path class="st2" d="M89.6,40.1c-0.5-0.3-0.9-0.7-1.1-1.3c-0.3-0.5-0.4-1.1-0.4-1.7c0-0.6,0.1-1.2,0.4-1.7
			c0.3-0.5,0.7-0.9,1.1-1.3c0.5-0.3,1-0.5,1.7-0.5c0.6,0,1.2,0.2,1.7,0.5c0.5,0.3,0.9,0.7,1.2,1.3c0.3,0.5,0.4,1.1,0.4,1.7
			c0,0.6-0.1,1.2-0.4,1.7c-0.3,0.5-0.7,0.9-1.2,1.3c-0.5,0.3-1.1,0.5-1.7,0.5C90.7,40.6,90.1,40.5,89.6,40.1z M92.5,39.3
			c0.3-0.2,0.5-0.5,0.7-0.9c0.1-0.4,0.2-0.8,0.2-1.3c0-0.5-0.1-0.9-0.2-1.3c-0.1-0.4-0.4-0.7-0.7-0.9c-0.3-0.2-0.7-0.3-1.1-0.3
			c-0.5,0-0.8,0.1-1.1,0.3c-0.3,0.2-0.5,0.5-0.7,0.9c-0.1,0.4-0.2,0.8-0.2,1.2c0,0.5,0.1,0.9,0.2,1.3c0.1,0.4,0.4,0.7,0.7,0.9
			c0.3,0.2,0.7,0.3,1.1,0.3C91.8,39.7,92.2,39.5,92.5,39.3z"/>
		<path class="st2" d="M96.4,33.8h1.1v4.4c0,0.2,0,0.5-0.1,0.8h0.1l3.2-5.2h1.2v6.7h-1.1v-4.4c0-0.2,0-0.5,0.1-0.8h-0.1l-3.2,5.2
			h-1.2V33.8z M98,32.6c-0.3-0.1-0.6-0.3-0.7-0.6c-0.2-0.3-0.3-0.6-0.3-1h0.9c0,0.2,0.1,0.4,0.2,0.6c0.1,0.2,0.2,0.3,0.4,0.4
			c0.2,0.1,0.4,0.1,0.6,0.1c0.2,0,0.4,0,0.6-0.1c0.2-0.1,0.3-0.2,0.4-0.4c0.1-0.2,0.2-0.3,0.2-0.6h0.9c0,0.4-0.1,0.7-0.3,1
			c-0.2,0.3-0.4,0.5-0.7,0.6c-0.3,0.1-0.7,0.2-1.1,0.2C98.7,32.8,98.4,32.7,98,32.6z"/>
		<path class="st2" d="M112.5,40.5h-8.2v-6.7h1.1v5.8h2.5v-5.8h1.1v5.8h2.5v-5.8h1.1v5.8h1v2.9h-1.1V40.5z"/>
		<path class="st2" d="M114.7,33.8h1.1v4.4c0,0.2,0,0.5-0.1,0.8h0.1l3.2-5.2h1.2v6.7h-1.1v-4.4c0-0.2,0-0.5,0.1-0.8h-0.1l-3.2,5.2
			h-1.2V33.8z"/>
		<path class="st2" d="M122.6,33.8h1.1v2.5h0.8l1.5-2.5h1.3l-1.8,2.7c0.2,0,0.4,0.1,0.6,0.3c0.2,0.2,0.3,0.5,0.4,0.8l1.1,2.9h-1.3
			l-0.8-2.4c-0.1-0.3-0.2-0.6-0.4-0.7c-0.2-0.1-0.4-0.2-0.6-0.2h-0.9v3.3h-1.1V33.8z"/>
	</g>
</g>
</svg>
