<?xml version="1.0" encoding="utf-8"?>
<!-- Generator: Adobe Illustrator 22.0.1, SVG Export Plug-In . SVG Version: 6.00 Build 0)  -->
<svg version="1.1" id="Layer_1" xmlns="http://www.w3.org/2000/svg" xmlns:xlink="http://www.w3.org/1999/xlink" x="0px" y="0px"
	 viewBox="0 0 97.1 97" style="enable-background:new 0 0 97.1 97;" xml:space="preserve">
<style type="text/css">
	.st0{fill:#12789B;}
	.st1{fill:#FFFFFF;}
	.st2{fill:#0B647D;}
	.st3{fill:#67B7BC;}
	.st4{fill:#EC7D26;}
	.st5{fill:#AEADAE;}
</style>
<g>
	<g>
		<circle class="st0" cx="48.3" cy="48.7" r="48.3"/>
	</g>
	<path class="st1" d="M70.8,31.5h-45c-0.8,0-1.4,0.6-1.4,1.4v31.7c0,0.8,0.6,1.4,1.4,1.4h45c0.8,0,1.4-0.6,1.4-1.4V32.9
		C72.2,32.1,71.6,31.5,70.8,31.5z M69.4,61l-8.6-9.1c-0.5-0.6-1.4-0.6-2-0.1c-0.6,0.5-0.6,1.4-0.1,2l8.8,9.3h-38l8.8-9.3
		c0.5-0.6,0.5-1.4-0.1-2c-0.6-0.5-1.4-0.5-2,0.1l-9.1,9.6V36l20.2,17.9c0.3,0.2,0.6,0.4,0.9,0.4s0.7-0.1,0.9-0.4L69.4,36V61z
		 M29.5,34.3h37.6L48.3,51L29.5,34.3z"/>
</g>
</svg>
