<?xml version="1.0" encoding="utf-8"?>
<!-- Generator: Adobe Illustrator 22.0.1, SVG Export Plug-In . SVG Version: 6.00 Build 0)  -->
<svg version="1.1" id="Layer_1" xmlns="http://www.w3.org/2000/svg" xmlns:xlink="http://www.w3.org/1999/xlink" x="0px" y="0px"
	 viewBox="0 0 48.9 47.5" style="enable-background:new 0 0 48.9 47.5;" xml:space="preserve">
<style type="text/css">
	.st0{fill:#12789B;}
	.st1{fill:#FFFFFF;}
	.st2{fill:#0B647D;}
	.st3{fill:#67B7BC;}
	.st4{fill:#EC7D26;}
	.st5{fill:#AEADAE;}
</style>
<g>
	<path class="st0" d="M25,0.1C12,0.1,1.4,10.7,1.4,23.8S12,47.4,25,47.4s23.7-10.6,23.7-23.7S38,0.1,25,0.1z M25,44.6
		c-11.5,0-20.8-9.4-20.8-20.8S13.5,2.9,25,2.9s20.8,9.4,20.8,20.8S36.5,44.6,25,44.6z"/>
	<path class="st0" d="M23.1,29.7l3.5-4c1.1-1.4,2-2.5,2.5-3.3s0.7-1.7,0.7-2.6c0-1.4-0.4-2.5-1.3-3.3s-2.1-1.3-3.7-1.3
		c-1.7,0-3,0.5-3.9,1.5s-1.4,2.2-1.4,3.6l0,0.1H22c0-0.8,0.2-1.5,0.7-2.1s1.1-0.8,2-0.8c0.7,0,1.3,0.2,1.7,0.7
		c0.4,0.4,0.6,1,0.6,1.7c0,0.6-0.2,1.2-0.5,1.9s-0.9,1.5-1.8,2.5l-5.2,6v1.9h10.7v-2.2L23.1,29.7L23.1,29.7z"/>
</g>
</svg>
