<?xml version="1.0" encoding="utf-8"?>
<!-- Generator: Adobe Illustrator 22.0.1, SVG Export Plug-In . SVG Version: 6.00 Build 0)  -->
<svg version="1.1" id="Layer_1" xmlns="http://www.w3.org/2000/svg" xmlns:xlink="http://www.w3.org/1999/xlink" x="0px" y="0px"
	 viewBox="0 0 48.9 47.5" style="enable-background:new 0 0 48.9 47.5;" xml:space="preserve">
<style type="text/css">
	.st0{fill:#12789B;}
	.st1{fill:#FFFFFF;}
	.st2{fill:#0B647D;}
	.st3{fill:#67B7BC;}
	.st4{fill:#EC7D26;}
	.st5{fill:#AEADAE;}
</style>
<g>
	<path class="st0" d="M23.6,0.2C10.6,0.2,0,10.8,0,23.8s10.6,23.7,23.6,23.7c13,0,23.7-10.6,23.7-23.7S36.7,0.2,23.6,0.2z
		 M23.6,44.7c-11.5,0-20.8-9.4-20.8-20.8S12.2,3,23.6,3c11.5,0,20.8,9.4,20.8,20.8S35.1,44.7,23.6,44.7z"/>
	<path class="st0" d="M27.2,15.5h-2.8l-6.9,11.2l0.1,1.7h6.9V32h2.8v-3.7h2.1v-2.2h-2.1V15.5z M24.4,26.1h-4.3l4-6.1l0.3-0.6l0.1,0
		V26.1z"/>
</g>
</svg>
