<?xml version="1.0" encoding="utf-8"?>
<!-- Generator: Adobe Illustrator 22.0.1, SVG Export Plug-In . SVG Version: 6.00 Build 0)  -->
<svg version="1.1" id="Layer_1" xmlns="http://www.w3.org/2000/svg" xmlns:xlink="http://www.w3.org/1999/xlink" x="0px" y="0px"
	 viewBox="0 0 43 43" style="enable-background:new 0 0 43 43;" xml:space="preserve">
<style type="text/css">
	.st0{fill:#12789B;}
	.st1{fill:#FFFFFF;}
	.st2{fill:#0B647D;}
	.st3{fill:#67B7BC;}
	.st4{fill:#EC7D26;}
	.st5{fill:#AEADAE;}
</style>
<path fill="#fff" d="M42,32.5L32,24c-0.6-0.5-1.6-0.5-2.1,0.2l-3.5,4c-0.3,0.3-0.8,0.4-1.1,0.2L14.7,17.8c-0.3-0.4-0.2-0.9,0.1-1.2l4-3.5
	c0.6-0.5,0.7-1.5,0.2-2.1L10.5,1c-0.5-0.6-1.4-0.7-2-0.3L3.7,4.1C1.4,5.8,0,8.5,0,11.3c0,3.1,0.9,7.9,5.6,13.4
	c0.1,0.1,0.2,0.2,0.3,0.3l12.3,12.3c0,0,0.1,0.1,0.1,0.1C23.7,42,28.4,43,31.5,43c0.1,0,0.1,0,0.2,0c2.8,0,5.5-1.4,7.2-3.8l3.3-4.7
	C42.7,33.8,42.6,33,42,32.5z M36.5,37.5C35.4,39,33.6,40,31.7,40c-2.5,0-6.6-0.8-11.4-4.8L7.6,22.4C3.7,17.7,3,13.8,3,11.3
	c0-1.9,1-3.7,2.5-4.8L9.1,4l6.7,7.9l-2.9,2.5c-1.5,1.4-1.7,3.7-0.5,5.3c0,0,0.1,0.1,0.1,0.1c0,0,0,0,0,0l10.7,10.7
	c0,0,0.1,0.1,0.1,0.1c1.6,1.2,3.9,1,5.3-0.5l2.5-2.9l7.9,6.7L36.5,37.5z"/>
</svg>
