<?xml version="1.0" encoding="utf-8"?>
<!-- Generator: Adobe Illustrator 22.0.1, SVG Export Plug-In . SVG Version: 6.00 Build 0)  -->
<svg version="1.1" id="Layer_1" xmlns="http://www.w3.org/2000/svg" xmlns:xlink="http://www.w3.org/1999/xlink" x="0px" y="0px"
	 viewBox="0 0 48.9 47.5" style="enable-background:new 0 0 48.9 47.5;" xml:space="preserve">
<style type="text/css">
	.st0{fill:#12789B;}
	.st1{fill:#FFFFFF;}
	.st2{fill:#0B647D;}
	.st3{fill:#67B7BC;}
	.st4{fill:#EC7D26;}
	.st5{fill:#AEADAE;}
</style>
<g>
	<path class="st0" d="M23.7,0.2C10.6,0.2,0,10.8,0,23.8s10.6,23.7,23.7,23.7s23.7-10.6,23.7-23.7S36.7,0.2,23.7,0.2z M23.7,44.7
		c-11.5,0-20.8-9.4-20.8-20.8S12.2,3,23.7,3s20.8,9.4,20.8,20.8S35.1,44.7,23.7,44.7z"/>
	<path class="st0" d="M26.2,23.5c0.7-0.4,1.3-0.9,1.7-1.5c0.4-0.6,0.6-1.3,0.6-2.1c0-1.5-0.5-2.7-1.4-3.5c-0.9-0.8-2.2-1.2-3.8-1.2
		c-1.5,0-2.8,0.4-3.8,1.3c-1,0.9-1.5,1.9-1.5,3.2l0,0.1h2.7c0-0.7,0.2-1.2,0.7-1.7c0.5-0.4,1.1-0.7,1.9-0.7c0.8,0,1.4,0.2,1.8,0.7
		s0.6,1,0.6,1.8c0,0.8-0.2,1.4-0.6,1.9c-0.4,0.4-1,0.7-1.9,0.7h-1.8v2.2h1.8c0.9,0,1.6,0.2,2.1,0.7s0.7,1.2,0.7,2.1
		c0,0.8-0.2,1.4-0.7,1.9s-1.2,0.7-2,0.7c-0.8,0-1.5-0.2-2-0.7c-0.5-0.5-0.8-1.1-0.8-1.8h-2.7l0,0.1c0,1.4,0.5,2.6,1.6,3.4
		c1.1,0.8,2.4,1.2,3.8,1.2c1.6,0,2.9-0.4,4-1.3c1-0.9,1.5-2.1,1.5-3.6c0-0.9-0.2-1.8-0.7-2.4C27.7,24.3,27.1,23.8,26.2,23.5z"/>
</g>
</svg>
